<svg width="30" height="31" viewBox="0 0 30 31" fill="none" xmlns="http://www.w3.org/2000/svg">
<rect y="0.193359" width="30" height="30" rx="15" fill="white" fill-opacity="0.1"/>
<rect x="0.333333" y="0.526693" width="29.3333" height="29.3333" rx="14.6667" stroke="white" stroke-opacity="0.3" stroke-width="0.666667" stroke-dasharray="2 1.33"/>
<path d="M14.906 13.4954C14.9685 13.4642 15.031 13.4485 15.0935 13.4485C15.156 13.4485 15.2185 13.4642 15.281 13.4954L19.5935 17.0579V20.9017C19.5935 21.011 19.5544 21.097 19.4763 21.1595C19.4138 21.2376 19.3278 21.2767 19.2185 21.2767H16.5935C16.4841 21.2767 16.3903 21.2376 16.3122 21.1595C16.2497 21.0814 16.2185 20.9954 16.2185 20.9017V18.6517C16.2185 18.5892 16.2028 18.5267 16.1716 18.4642C16.1403 18.4017 16.0935 18.3548 16.031 18.3235C15.9685 18.2923 15.906 18.2767 15.8435 18.2767H14.3435C14.2341 18.2767 14.1403 18.3157 14.0622 18.3939C13.9997 18.4564 13.9685 18.5423 13.9685 18.6517V20.9017C13.9685 20.9954 13.9294 21.0814 13.8513 21.1595C13.7888 21.2376 13.7028 21.2767 13.5935 21.2767H10.9685C10.8591 21.2767 10.7653 21.2376 10.6872 21.1595C10.6247 21.097 10.5935 21.011 10.5935 20.9017V17.0579L14.906 13.4954ZM21.7497 15.9095C21.8122 15.972 21.8435 16.0501 21.8435 16.1439C21.8435 16.2064 21.82 16.261 21.7731 16.3079L21.1872 17.0345C21.1247 17.1126 21.0544 17.1517 20.9763 17.1517C20.8981 17.1517 20.8356 17.1282 20.7888 17.0814L15.281 12.5345C15.2185 12.5032 15.156 12.4876 15.0935 12.4876C15.031 12.4876 14.9685 12.5032 14.906 12.5345L9.39815 17.0814C9.35127 17.1282 9.29659 17.1517 9.23409 17.1517C9.14034 17.1517 9.06221 17.1126 8.99971 17.0345L8.41377 16.3079C8.3669 16.261 8.34346 16.2064 8.34346 16.1439C8.34346 16.0501 8.37471 15.972 8.43721 15.9095L14.3669 11.0345C14.5856 10.8626 14.8278 10.7767 15.0935 10.7767C15.3591 10.7767 15.5935 10.8626 15.7966 11.0345L17.906 12.7689V11.0579C17.906 10.9798 17.9294 10.9173 17.9763 10.8704C18.0388 10.8079 18.1091 10.7767 18.1872 10.7767H19.4997C19.5778 10.7767 19.6403 10.8079 19.6872 10.8704C19.7497 10.9173 19.781 10.9798 19.781 11.0579V14.3157L21.7497 15.9095Z" fill="#FCFCFC"/>
</svg>
