<svg width="30" height="31" viewBox="0 0 30 31" fill="none" xmlns="http://www.w3.org/2000/svg">
<rect y="0.713379" width="30" height="30" rx="15" fill="white" fill-opacity="0.1"/>
<rect x="0.333333" y="1.04671" width="29.3333" height="29.3333" rx="14.6667" stroke="white" stroke-opacity="0.3" stroke-width="0.666667" stroke-dasharray="2 1.33"/>
<path d="M20.8323 15.0233C20.8792 14.9764 20.926 14.9686 20.9729 14.9998C21.0354 15.0311 21.0667 15.0779 21.0667 15.1404V19.9217C21.0667 20.2342 20.9573 20.4998 20.7385 20.7186C20.5198 20.9373 20.2542 21.0467 19.9417 21.0467H10.1917C9.87917 21.0467 9.61354 20.9373 9.39479 20.7186C9.17604 20.4998 9.06667 20.2342 9.06667 19.9217V15.1404C9.06667 15.0779 9.0901 15.0389 9.13698 15.0233C9.19948 14.992 9.25417 14.992 9.30104 15.0233C9.81667 15.4139 11.0198 16.2967 12.9104 17.6717C12.9417 17.7029 13.0432 17.7889 13.2151 17.9295C13.4026 18.0701 13.551 18.1795 13.6604 18.2576C13.7698 18.3201 13.9104 18.4061 14.0823 18.5154C14.2542 18.6092 14.4182 18.6795 14.5745 18.7264C14.7464 18.7733 14.9104 18.7967 15.0667 18.7967C15.2073 18.7967 15.3479 18.7811 15.4885 18.7498C15.6292 18.7029 15.762 18.6561 15.887 18.6092C16.012 18.5467 16.1448 18.4686 16.2854 18.3748C16.426 18.2811 16.5432 18.2029 16.637 18.1404C16.7307 18.0623 16.8401 17.9764 16.9651 17.8826C17.0901 17.7889 17.176 17.7186 17.2229 17.6717C19.0667 16.3436 20.2698 15.4608 20.8323 15.0233ZM15.0667 18.0467C14.9417 18.0467 14.7854 18.0076 14.5979 17.9295C14.426 17.8358 14.2854 17.7576 14.176 17.6951C14.0667 17.617 13.9026 17.4998 13.6839 17.3436C13.4807 17.1717 13.3714 17.0858 13.3557 17.0858C11.4495 15.6951 10.0901 14.6873 9.2776 14.0623C9.13698 13.9529 9.06667 13.8045 9.06667 13.617V13.1717C9.06667 12.8592 9.17604 12.5936 9.39479 12.3748C9.61354 12.1561 9.87917 12.0467 10.1917 12.0467H19.9417C20.2542 12.0467 20.5198 12.1561 20.7385 12.3748C20.9573 12.5936 21.0667 12.8592 21.0667 13.1717V13.617C21.0667 13.8045 20.9964 13.9529 20.8557 14.0623C20.0901 14.6561 18.7307 15.6639 16.7776 17.0858C16.762 17.0858 16.6448 17.1717 16.426 17.3436C16.2229 17.4998 16.0667 17.617 15.9573 17.6951C15.8479 17.7576 15.6995 17.8358 15.512 17.9295C15.3401 18.0076 15.1917 18.0467 15.0667 18.0467Z" fill="#FCFCFC"/>
</svg>
