<svg width="18" height="18" viewBox="0 0 18 18" fill="none" xmlns="http://www.w3.org/2000/svg">
<path d="M8.89247 12.8659L12.242 14.9877C12.6702 15.2587 13.2014 14.8554 13.0745 14.3555L12.1071 10.5491C12.0797 10.4431 12.0829 10.3315 12.1162 10.2272C12.1494 10.1229 12.2115 10.0301 12.2951 9.95944L15.2988 7.45991C15.693 7.1316 15.4901 6.47656 14.9827 6.44363L11.0605 6.18863C10.9549 6.18114 10.8536 6.1438 10.7684 6.08098C10.6832 6.01815 10.6176 5.93242 10.5792 5.83375L9.11612 2.15007C9.07628 2.04538 9.00557 1.95527 8.91335 1.89169C8.82113 1.82811 8.71176 1.79407 8.59975 1.79407C8.48774 1.79407 8.37837 1.82811 8.28615 1.89169C8.19393 1.95527 8.12321 2.04538 8.08337 2.15007L6.62031 5.83375C6.58201 5.93252 6.51644 6.01836 6.43122 6.08129C6.346 6.14421 6.24466 6.18162 6.139 6.18916L2.21678 6.44416C1.70997 6.47656 1.50597 7.1316 1.90069 7.45991L4.90437 9.95997C4.98794 10.0306 5.04992 10.1233 5.08318 10.2275C5.11645 10.3317 5.11965 10.4432 5.09244 10.5491L4.19569 14.0793C4.04322 14.6791 4.68125 15.163 5.19444 14.8374L8.30756 12.8659C8.39506 12.8103 8.49659 12.7807 8.60028 12.7807C8.70396 12.7807 8.8055 12.8103 8.893 12.8659H8.89247Z" fill="#FF8A00"/>
</svg>
