<svg width="18" height="18" viewBox="0 0 18 18" fill="none" xmlns="http://www.w3.org/2000/svg">
<path d="M9.59266 12.866L12.9422 14.9878C13.3704 15.2588 13.9016 14.8556 13.7747 14.3557L12.8073 10.5492C12.7799 10.4432 12.7831 10.3316 12.8163 10.2273C12.8496 10.123 12.9117 10.0302 12.9953 9.95956L15.999 7.46003C16.3932 7.13172 16.1903 6.47669 15.6829 6.44375L11.7607 6.18875C11.6551 6.18126 11.5538 6.14393 11.4686 6.0811C11.3834 6.01828 11.3178 5.93254 11.2794 5.83387L9.81632 2.15019C9.77648 2.0455 9.70576 1.95539 9.61354 1.89181C9.52132 1.82824 9.41195 1.79419 9.29994 1.79419C9.18793 1.79419 9.07856 1.82824 8.98634 1.89181C8.89412 1.95539 8.82341 2.0455 8.78357 2.15019L7.32051 5.83387C7.28221 5.93264 7.21663 6.01849 7.13141 6.08141C7.0462 6.14433 6.94485 6.18174 6.83919 6.18928L2.91697 6.44428C2.41016 6.47669 2.20616 7.13172 2.60088 7.46003L5.60457 9.96009C5.68814 10.0307 5.75011 10.1234 5.78338 10.2276C5.81664 10.3318 5.81985 10.4433 5.79263 10.5492L4.89588 14.0794C4.74341 14.6792 5.38144 15.1632 5.89463 14.8375L9.00776 12.866C9.09525 12.8104 9.19679 12.7809 9.30047 12.7809C9.40416 12.7809 9.50569 12.8104 9.59319 12.866H9.59266Z" fill="#FF8A00"/>
</svg>
