<svg width="18" height="18" viewBox="0 0 18 18" fill="none" xmlns="http://www.w3.org/2000/svg">
<path d="M9.24256 12.8659L12.5921 14.9877C13.0203 15.2587 13.5515 14.8554 13.4246 14.3555L12.4572 10.5491C12.4298 10.4431 12.433 10.3315 12.4663 10.2272C12.4995 10.1229 12.5616 10.0301 12.6452 9.95944L15.6489 7.45991C16.0431 7.1316 15.8402 6.47656 15.3328 6.44363L11.4106 6.18863C11.305 6.18114 11.2037 6.1438 11.1185 6.08098C11.0333 6.01815 10.9677 5.93242 10.9293 5.83375L9.46622 2.15007C9.42638 2.04538 9.35566 1.95527 9.26344 1.89169C9.17122 1.82811 9.06186 1.79407 8.94984 1.79407C8.83783 1.79407 8.72847 1.82811 8.63625 1.89169C8.54403 1.95527 8.47331 2.04538 8.43347 2.15007L6.97041 5.83375C6.93211 5.93252 6.86653 6.01836 6.78132 6.08129C6.6961 6.14421 6.59476 6.18162 6.4891 6.18916L2.56688 6.44416C2.06006 6.47656 1.85606 7.1316 2.25078 7.45991L5.25447 9.95997C5.33804 10.0306 5.40002 10.1233 5.43328 10.2275C5.46655 10.3317 5.46975 10.4432 5.44253 10.5491L4.54578 14.0793C4.39331 14.6791 5.03135 15.163 5.54453 14.8374L8.65766 12.8659C8.74516 12.8103 8.84669 12.7807 8.95038 12.7807C9.05406 12.7807 9.1556 12.8103 9.24309 12.8659H9.24256Z" fill="#FF8A00"/>
</svg>
