<svg width="18" height="18" viewBox="0 0 18 18" fill="none" xmlns="http://www.w3.org/2000/svg">
<path d="M8.94276 12.866L12.2923 14.9878C12.7205 15.2588 13.2517 14.8556 13.1248 14.3557L12.1574 10.5492C12.13 10.4432 12.1332 10.3316 12.1664 10.2273C12.1997 10.123 12.2617 10.0302 12.3454 9.95956L15.3491 7.46003C15.7433 7.13172 15.5404 6.47669 15.033 6.44375L11.1108 6.18875C11.0052 6.18126 10.9039 6.14393 10.8187 6.0811C10.7335 6.01828 10.6679 5.93254 10.6295 5.83387L9.16642 2.15019C9.12658 2.0455 9.05586 1.95539 8.96364 1.89181C8.87142 1.82824 8.76205 1.79419 8.65004 1.79419C8.53803 1.79419 8.42866 1.82824 8.33644 1.89181C8.24422 1.95539 8.1735 2.0455 8.13367 2.15019L6.6706 5.83387C6.63231 5.93264 6.56673 6.01849 6.48151 6.08141C6.3963 6.14433 6.29495 6.18174 6.18929 6.18928L2.26707 6.44428C1.76026 6.47669 1.55626 7.13172 1.95098 7.46003L4.95467 9.96009C5.03824 10.0307 5.10021 10.1234 5.13348 10.2276C5.16674 10.3318 5.16995 10.4433 5.14273 10.5492L4.24598 14.0794C4.09351 14.6792 4.73154 15.1632 5.24473 14.8375L8.35785 12.866C8.44535 12.8104 8.54689 12.7809 8.65057 12.7809C8.75426 12.7809 8.85579 12.8104 8.94329 12.866H8.94276Z" fill="#FF8A00"/>
</svg>
