<svg width="18" height="18" viewBox="0 0 18 18" fill="none" xmlns="http://www.w3.org/2000/svg">
<path d="M9.39247 12.8659L12.742 14.9877C13.1702 15.2587 13.7014 14.8554 13.5745 14.3555L12.6071 10.5491C12.5797 10.4431 12.5829 10.3315 12.6162 10.2272C12.6494 10.1229 12.7115 10.0301 12.7951 9.95944L15.7988 7.45991C16.193 7.1316 15.9901 6.47656 15.4827 6.44363L11.5605 6.18863C11.4549 6.18114 11.3536 6.1438 11.2684 6.08098C11.1832 6.01815 11.1176 5.93242 11.0792 5.83375L9.61612 2.15007C9.57628 2.04538 9.50557 1.95527 9.41335 1.89169C9.32113 1.82811 9.21176 1.79407 9.09975 1.79407C8.98774 1.79407 8.87837 1.82811 8.78615 1.89169C8.69393 1.95527 8.62321 2.04538 8.58337 2.15007L7.12031 5.83375C7.08201 5.93252 7.01644 6.01836 6.93122 6.08129C6.846 6.14421 6.74466 6.18162 6.639 6.18916L2.71678 6.44416C2.20997 6.47656 2.00597 7.1316 2.40069 7.45991L5.40437 9.95997C5.48794 10.0306 5.54992 10.1233 5.58318 10.2275C5.61645 10.3317 5.61965 10.4432 5.59244 10.5491L4.69569 14.0793C4.54322 14.6791 5.18125 15.163 5.69444 14.8374L8.80756 12.8659C8.89506 12.8103 8.99659 12.7807 9.10028 12.7807C9.20396 12.7807 9.3055 12.8103 9.393 12.8659H9.39247Z" fill="#FF8A00"/>
</svg>
