<svg width="28" height="23" viewBox="0 0 28 23" fill="none" xmlns="http://www.w3.org/2000/svg">
<path opacity="0.3" fill-rule="evenodd" clip-rule="evenodd" d="M20.6488 0.800049C17.7702 0.800049 15.4322 3.05846 15.4322 5.84361C15.4322 8.62703 17.7702 10.8872 20.6488 10.8872C25.5942 10.8872 22.7285 19.6454 16.4913 20.5577C16.197 20.5997 15.9284 20.7392 15.7341 20.951C15.5399 21.1629 15.4328 21.4331 15.4322 21.7127C15.4322 22.4288 16.1138 22.9951 16.8687 22.8867C28.2053 21.2721 32.2364 0.80177 20.6488 0.80177V0.800049ZM5.61833 0.800049C2.7361 0.800049 0.399902 3.05674 0.399902 5.84361C0.399902 8.62531 2.7361 10.8837 5.61833 10.8837C10.5619 10.8837 7.69618 19.6454 1.45898 20.5577C1.165 20.5996 0.896668 20.7389 0.702444 20.9504C0.508219 21.1619 0.400911 21.4317 0.399902 21.711C0.399902 22.4271 1.08152 22.9934 1.8346 22.885C13.1748 21.2703 17.2059 0.800049 5.61833 0.800049Z" fill="#00B307"/>
</svg>
